HIERARCHY
ROOT Hips
{
	OFFSET 0.000000 97.167313 0.000000
	CHANNELS 6 Xposition Yposition Zposition Xrotation Yrotation Zrotation
	JOINT Spine
	{
		OFFSET 0.000000 13.784798 0.064400
		CHANNELS 3 Xrotation Yrotation Zrotation
		JOINT Spine1
		{
			OFFSET 0.000000 12.037903 0.404700
			CHANNELS 3 Xrotation Yrotation Zrotation
			JOINT Spine2
			{
				OFFSET 0.000000 17.795601 0.420200
				CHANNELS 3 Xrotation Yrotation Zrotation
				JOINT Neck
				{
					OFFSET 0.000000 39.131302 11.954600
					CHANNELS 3 Xrotation Yrotation Zrotation
					JOINT Head
					{
						OFFSET 0.000000 14.456192 15.627699
						CHANNELS 3 Xrotation Yrotation Zrotation
						JOINT HeadTop_End
						{
							OFFSET 0.000000 15.703506 7.603401
							CHANNELS 3 Xrotation Yrotation Zrotation
							End Site
							{
								OFFSET 0.000000 17.447403 0.000000
							}
						}
					}
				}
				JOINT LeftShoulder
				{
					OFFSET 17.399500 24.608795 1.168800
					CHANNELS 3 Xrotation Yrotation Zrotation
					JOINT LeftArm
					{
						OFFSET 18.980635 5.765305 1.818600
						CHANNELS 3 Xrotation Yrotation Zrotation
						JOINT LeftForeArm
						{
							OFFSET 49.290169 0.000000 0.000000
							CHANNELS 3 Xrotation Yrotation Zrotation
							JOINT LeftHand
							{
								OFFSET 31.562012 0.000000 0.000000
								CHANNELS 3 Xrotation Yrotation Zrotation
								JOINT LeftHandThumb1
								{
									OFFSET 6.133995 -4.388519 7.076070
									CHANNELS 3 Xrotation Yrotation Zrotation
									JOINT LeftHandThumb2
									{
										OFFSET 6.037666 -3.485840 3.485847
										CHANNELS 3 Xrotation Yrotation Zrotation
										JOINT LeftHandThumb3
										{
											OFFSET 6.496506 -3.750763 3.750761
											CHANNELS 3 Xrotation Yrotation Zrotation
											JOINT LeftHandThumb4
											{
												OFFSET 5.616882 -3.242905 3.242910
												CHANNELS 3 Xrotation Yrotation Zrotation
												End Site
												{
													OFFSET -1.254608 7.132141 0.375429
												}
											}
										}
									}
								}
								JOINT LeftHandPinky1
								{
									OFFSET 18.920792 -0.453171 -11.426712
									CHANNELS 3 Xrotation Yrotation Zrotation
									JOINT LeftHandPinky2
									{
										OFFSET 4.919586 0.000000 0.000000
										CHANNELS 3 Xrotation Yrotation Zrotation
										JOINT LeftHandPinky3
										{
											OFFSET 5.233047 0.000000 0.000000
											CHANNELS 3 Xrotation Yrotation Zrotation
											JOINT LeftHandPinky4
											{
												OFFSET 5.571716 0.000000 0.000000
												CHANNELS 3 Xrotation Yrotation Zrotation
												End Site
												{
													OFFSET -3.459808 4.342407 -0.466164
												}
											}
										}
									}
								}
								JOINT LeftHandRing1
								{
									OFFSET 22.726120 -0.094986 -6.500475
									CHANNELS 3 Xrotation Yrotation Zrotation
									JOINT LeftHandRing2
									{
										OFFSET 6.408615 0.000000 0.000000
										CHANNELS 3 Xrotation Yrotation Zrotation
										JOINT LeftHandRing3
										{
											OFFSET 6.150223 0.000000 0.000000
											CHANNELS 3 Xrotation Yrotation Zrotation
											JOINT LeftHandRing4
											{
												OFFSET 6.145386 0.000000 0.000000
												CHANNELS 3 Xrotation Yrotation Zrotation
												End Site
												{
													OFFSET -3.671402 4.923981 -0.202372
												}
											}
										}
									}
								}
								JOINT LeftHandMiddle1
								{
									OFFSET 23.373947 0.000000 0.000001
									CHANNELS 3 Xrotation Yrotation Zrotation
									JOINT LeftHandMiddle2
									{
										OFFSET 6.996567 0.000000 0.000000
										CHANNELS 3 Xrotation Yrotation Zrotation
										JOINT LeftHandMiddle3
										{
											OFFSET 7.015945 0.000000 0.000000
											CHANNELS 3 Xrotation Yrotation Zrotation
											JOINT LeftHandMiddle4
											{
												OFFSET 7.721573 0.000000 0.000000
												CHANNELS 3 Xrotation Yrotation Zrotation
												End Site
												{
													OFFSET -4.651108 6.158463 0.251582
												}
											}
										}
									}
								}
								JOINT LeftHandIndex1
								{
									OFFSET 21.310577 -0.490082 6.209344
									CHANNELS 3 Xrotation Yrotation Zrotation
									JOINT LeftHandIndex2
									{
										OFFSET 7.536453 0.000000 0.000000
										CHANNELS 3 Xrotation Yrotation Zrotation
										JOINT LeftHandIndex3
										{
											OFFSET 7.512344 0.000000 0.000000
											CHANNELS 3 Xrotation Yrotation Zrotation
											JOINT LeftHandIndex4
											{
												OFFSET 10.212402 0.000000 0.000001
												CHANNELS 3 Xrotation Yrotation Zrotation
												End Site
												{
													OFFSET -5.180801 8.690506 1.388433
												}
											}
										}
									}
								}
							}
						}
					}
				}
				JOINT RightShoulder
				{
					OFFSET -17.399500 24.608795 1.168800
					CHANNELS 3 Xrotation Yrotation Zrotation
					JOINT RightArm
					{
						OFFSET -18.980635 5.765305 1.818600
						CHANNELS 3 Xrotation Yrotation Zrotation
						JOINT RightForeArm
						{
							OFFSET -49.290169 0.000000 0.000000
							CHANNELS 3 Xrotation Yrotation Zrotation
							JOINT RightHand
							{
								OFFSET -31.562012 0.000000 0.000000
								CHANNELS 3 Xrotation Yrotation Zrotation
								JOINT RightHandThumb1
								{
									OFFSET -6.133995 -4.388519 7.076070
									CHANNELS 3 Xrotation Yrotation Zrotation
									JOINT RightHandThumb2
									{
										OFFSET -6.037666 -3.485840 3.485847
										CHANNELS 3 Xrotation Yrotation Zrotation
										JOINT RightHandThumb3
										{
											OFFSET -6.496506 -3.750763 3.750761
											CHANNELS 3 Xrotation Yrotation Zrotation
											JOINT RightHandThumb4
											{
												OFFSET -5.616882 -3.242905 3.242910
												CHANNELS 3 Xrotation Yrotation Zrotation
												End Site
												{
													OFFSET 1.254608 7.132141 0.375429
												}
											}
										}
									}
								}
								JOINT RightHandIndex1
								{
									OFFSET -21.310577 -0.490082 6.209344
									CHANNELS 3 Xrotation Yrotation Zrotation
									JOINT RightHandIndex2
									{
										OFFSET -7.536453 0.000000 0.000000
										CHANNELS 3 Xrotation Yrotation Zrotation
										JOINT RightHandIndex3
										{
											OFFSET -7.512344 0.000000 0.000000
											CHANNELS 3 Xrotation Yrotation Zrotation
											JOINT RightHandIndex4
											{
												OFFSET -10.212402 0.000000 0.000001
												CHANNELS 3 Xrotation Yrotation Zrotation
												End Site
												{
													OFFSET 5.180801 8.690506 1.388433
												}
											}
										}
									}
								}
								JOINT RightHandMiddle1
								{
									OFFSET -23.373947 0.000000 0.000001
									CHANNELS 3 Xrotation Yrotation Zrotation
									JOINT RightHandMiddle2
									{
										OFFSET -6.996567 0.000000 0.000000
										CHANNELS 3 Xrotation Yrotation Zrotation
										JOINT RightHandMiddle3
										{
											OFFSET -7.015945 0.000000 0.000000
											CHANNELS 3 Xrotation Yrotation Zrotation
											JOINT RightHandMiddle4
											{
												OFFSET -7.721573 0.000000 0.000000
												CHANNELS 3 Xrotation Yrotation Zrotation
												End Site
												{
													OFFSET 4.651108 6.158463 0.251582
												}
											}
										}
									}
								}
								JOINT RightHandRing1
								{
									OFFSET -22.726120 -0.094986 -6.500475
									CHANNELS 3 Xrotation Yrotation Zrotation
									JOINT RightHandRing2
									{
										OFFSET -6.408615 0.000000 0.000000
										CHANNELS 3 Xrotation Yrotation Zrotation
										JOINT RightHandRing3
										{
											OFFSET -6.150223 0.000000 0.000000
											CHANNELS 3 Xrotation Yrotation Zrotation
											JOINT RightHandRing4
											{
												OFFSET -6.145386 0.000000 0.000000
												CHANNELS 3 Xrotation Yrotation Zrotation
												End Site
												{
													OFFSET 3.671402 4.923981 -0.202372
												}
											}
										}
									}
								}
								JOINT RightHandPinky1
								{
									OFFSET -18.920792 -0.453171 -11.426712
									CHANNELS 3 Xrotation Yrotation Zrotation
									JOINT RightHandPinky2
									{
										OFFSET -4.919586 0.000000 0.000000
										CHANNELS 3 Xrotation Yrotation Zrotation
										JOINT RightHandPinky3
										{
											OFFSET -5.233047 0.000000 0.000000
											CHANNELS 3 Xrotation Yrotation Zrotation
											JOINT RightHandPinky4
											{
												OFFSET -5.571716 0.000000 0.000000
												CHANNELS 3 Xrotation Yrotation Zrotation
												End Site
												{
													OFFSET 3.459808 4.342407 -0.466164
												}
											}
										}
									}
								}
							}
						}
					}
				}
			}
		}
	}
	JOINT LeftUpLeg
	{
		OFFSET 19.899099 -7.885101 -3.429500
		CHANNELS 3 Xrotation Yrotation Zrotation
		JOINT LeftLeg
		{
			OFFSET 1.745560 -36.997807 10.304700
			CHANNELS 3 Xrotation Yrotation Zrotation
			JOINT LeftFoot
			{
				OFFSET -1.745558 -29.803308 -13.615400
				CHANNELS 3 Xrotation Yrotation Zrotation
				JOINT LeftToeBase
				{
					OFFSET 1.181900 -18.539904 15.226099
					CHANNELS 3 Xrotation Yrotation Zrotation
					JOINT LeftToe_End
					{
						OFFSET -0.863701 1.402801 16.534700
						CHANNELS 3 Xrotation Yrotation Zrotation
						End Site
						{
							OFFSET 0.000000 16.616566 0.000000
						}
					}
				}
			}
		}
	}
	JOINT RightUpLeg
	{
		OFFSET -19.899099 -7.885101 -3.429500
		CHANNELS 3 Xrotation Yrotation Zrotation
		JOINT RightLeg
		{
			OFFSET -1.745560 -36.997807 10.304700
			CHANNELS 3 Xrotation Yrotation Zrotation
			JOINT RightFoot
			{
				OFFSET 1.745558 -29.803308 -13.615400
				CHANNELS 3 Xrotation Yrotation Zrotation
				JOINT RightToeBase
				{
					OFFSET -1.181900 -18.539904 15.226099
					CHANNELS 3 Xrotation Yrotation Zrotation
					JOINT RightToe_End
					{
						OFFSET 0.863701 1.402801 16.534700
						CHANNELS 3 Xrotation Yrotation Zrotation
						End Site
						{
							OFFSET 0.000000 16.616566 0.000000
						}
					}
				}
			}
		}
	}
}
MOTION
Frames: 4
Frame Time: 0.033333
1.070084 66.621338 191.546234 46.000631 -69.714696 44.494236 26.962081 -2.685234 -6.440939 4.408797 -0.680191 -1.971849 4.409734 -0.654512 -1.993017 -10.721784 29.494662 -11.740095 -23.021735 27.662051 2.631832 0.000001 0.000000 -0.000000 4.720258 -8.827173 -9.181826 -53.544021 14.708107 -40.303037 50.816334 -27.025296 31.424355 -28.680924 -5.236149 20.467632 40.109914 -15.297179 -0.360497 5.639864 28.097972 11.338835 1.088499 40.896273 22.734076 0.000003 -0.000000 -0.000002 -17.946923 14.755005 -51.485860 8.868076 8.667461 -84.809414 4.540196 8.852385 -59.152826 -0.000000 0.000002 -0.000002 -9.042434 10.045678 -60.766342 8.524092 9.508843 -66.892994 6.576515 9.897270 -70.385079 -0.000000 -0.000001 0.000003 -2.345548 4.688845 -62.655258 8.754144 9.897113 -87.051307 1.995316 4.929178 -37.483416 -0.000000 -0.000002 0.000003 7.804075 1.167193 -61.172813 8.248036 7.640534 -89.897871 2.146169 8.173495 -41.827693 -0.000001 0.000000 0.000004 4.195812 15.955090 16.570138 -27.761531 -1.883525 45.720060 -6.465963 40.454804 -0.519245 10.117078 3.610650 -1.274086 -2.280633 -3.317394 7.332805 0.652210 -18.504167 -7.947787 4.234177 -6.992508 1.076354 0.000002 -0.000002 0.000002 -3.002938 -0.785681 6.855206 0.038538 -0.081887 18.349933 0.520478 -1.971081 5.597622 -0.000001 0.000000 0.000003 -8.249053 -5.676871 8.288133 1.314020 -4.303972 20.287325 -0.062815 1.762011 -2.145817 0.000002 0.000003 -0.000003 -10.774656 -10.741422 2.949352 1.298476 -4.002471 19.457703 1.053320 -4.131216 13.415848 0.000003 0.000001 -0.000005 -14.014428 -12.600411 -2.938278 3.229061 -2.344287 16.028723 4.835028 -4.286546 19.837046 0.000001 -0.000000 0.000002 -49.653211 0.235242 40.931100 57.473433 -11.619861 -2.822453 -15.125044 10.566338 -26.835429 -1.931424 -0.000065 -0.095036 -0.000000 -0.000000 0.000000 -53.678614 4.533648 -35.268686 58.846246 9.808953 -1.908509 -16.689145 -2.439143 28.181250 -0.001007 -0.000362 -0.000764 0.000000 -0.000000 0.000000 
0.612665 68.615952 191.783798 41.364712 -69.399578 39.651721 26.221487 -2.453981 -6.408308 4.333350 -0.472330 -1.914053 4.331760 -0.440535 -1.947427 -9.931308 28.216866 -11.230789 -23.251946 28.738554 2.816566 0.000001 0.000000 0.000001 4.306084 -8.393176 -9.611637 -51.445091 16.097118 -40.729255 51.492574 -28.050270 32.238684 -27.679297 -7.125886 18.740676 40.109900 -15.297190 -0.360503 5.639882 28.097969 11.338820 1.088500 40.896280 22.734093 -0.000004 -0.000000 0.000001 -17.946945 14.754984 -51.485884 8.868094 8.667428 -84.809626 4.540210 8.852411 -59.152846 -0.000000 -0.000000 -0.000000 -9.042455 10.045661 -60.766342 8.524107 9.508832 -66.893008 6.576516 9.897213 -70.385072 -0.000001 -0.000001 -0.000000 -2.345555 4.688841 -62.655258 8.754150 9.897106 -87.051307 1.995322 4.929190 -37.483416 0.000000 -0.000002 0.000004 7.714163 1.330479 -61.170840 8.248018 7.640472 -89.897871 2.146150 8.173483 -41.827689 -0.000003 0.000006 0.000002 3.686473 15.311167 16.018648 -26.469080 -1.614946 45.401917 -8.107184 39.841467 1.862904 8.486428 5.350230 -2.151181 -5.080993 -2.045459 6.090632 1.858687 -22.135545 -8.722134 6.054173 -11.329878 0.247053 0.000000 -0.000003 -0.000000 -2.100218 -1.456291 5.778729 0.037259 -0.082498 18.207724 0.495063 -1.972984 6.497302 -0.000001 0.000000 0.000001 -5.714806 -7.149933 9.263125 1.593555 -4.204235 24.786478 -0.139114 1.753567 1.241282 0.000003 0.000001 -0.000001 -7.023274 -12.295234 7.035441 1.575534 -3.907548 23.537341 1.350013 -4.041564 18.318631 -0.000001 -0.000000 -0.000003 -11.780219 -13.394002 1.029774 3.356511 -2.167139 19.206584 5.385507 -4.475850 24.679949 0.000000 0.000001 0.000002 -48.147431 1.391835 39.700092 54.284499 -11.117058 -2.403214 -13.664733 9.565546 -26.195189 -1.922151 -0.000128 -0.085772 -0.000000 0.000004 0.000000 -49.691460 1.879924 -35.252536 55.583752 9.032087 -1.957133 -16.656275 -2.697236 28.104827 -0.001091 -0.000382 -0.000684 0.000000 -0.000000 0.000000 
0.126875 70.521614 191.987579 36.969724 -69.037578 35.089643 25.451634 -2.240184 -6.361079 4.280202 -0.294524 -1.860897 4.276702 -0.255116 -1.904176 -9.057942 26.880182 -10.666334 -23.468701 29.964976 2.991570 0.000000 -0.000000 -0.000000 3.896782 -8.009174 -10.058279 -49.360018 17.529187 -41.061250 51.828145 -29.225669 32.880882 -26.579509 -8.994472 17.006908 40.109903 -15.297184 -0.360517 5.639872 28.097978 11.338824 1.088505 40.896270 22.734088 0.000002 0.000001 -0.000001 -17.946937 14.755024 -51.485887 8.868136 8.667386 -84.809885 4.540260 8.852422 -59.152860 0.000000 0.000003 -0.000007 -9.042434 10.045692 -60.766287 8.524087 9.508824 -66.893008 6.576517 9.897169 -70.385099 -0.000001 -0.000001 0.000002 -2.345536 4.688867 -62.655251 8.754132 9.897113 -87.051301 1.995325 4.929180 -37.483405 0.000002 -0.000004 0.000004 7.626920 1.488952 -61.168688 8.248015 7.640451 -89.897871 2.146152 8.173469 -41.827689 -0.000002 0.000001 0.000001 3.183604 15.204384 15.710292 -24.621483 -2.090926 44.941033 -9.973372 39.494609 4.209279 6.667438 6.680193 -3.223120 -8.334007 -0.505787 4.682072 3.149587 -26.026291 -9.443640 8.122594 -16.296198 -0.546127 0.000003 -0.000002 -0.000000 -1.194166 -2.248230 4.411821 0.035257 -0.082258 17.969384 0.444000 -1.974228 7.380081 -0.000002 -0.000001 -0.000001 -2.698904 -8.294227 10.925122 1.879333 -4.053493 29.873427 -0.209538 1.732610 5.145144 -0.000001 0.000001 -0.000006 -2.681725 -13.115033 12.191921 1.849428 -3.765555 28.045271 1.653882 -3.900218 23.775264 0.000000 -0.000000 -0.000005 -9.587608 -13.848143 5.765859 3.462589 -1.959755 22.698778 6.043521 -4.581374 30.029944 -0.000001 -0.000000 0.000006 -46.431336 2.522414 38.654516 51.046143 -10.717748 -2.062974 -12.224206 8.595857 -25.661434 -1.913159 -0.000177 -0.076753 -0.000000 0.000001 0.000000 -45.857788 -0.701232 -35.089677 52.293154 8.299656 -1.973681 -16.462028 -2.852881 28.000668 -0.001161 -0.000362 -0.000609 0.000000 0.000000 0.000000 
-0.357254 72.335915 192.219254 32.805668 -68.575359 30.795407 24.673927 -2.035509 -6.281842 4.252571 -0.152320 -1.816707 4.247920 -0.102515 -1.867945 -8.177186 25.500498 -10.050179 -23.681934 31.304751 3.155823 0.000001 -0.000000 -0.000000 3.510935 -7.631664 -10.483464 -47.375025 18.969017 -41.335256 51.810830 -30.513375 33.318185 -25.420467 -10.779676 15.370456 40.109903 -15.297170 -0.360505 5.639865 28.097974 11.338814 1.088519 40.896294 22.734059 -0.000000 -0.000000 -0.000001 -17.946947 14.755019 -51.485870 8.868176 8.667352 -84.810111 4.540271 8.852430 -59.152874 0.000001 0.000001 -0.000004 -9.042457 10.045683 -60.766287 8.524091 9.508849 -66.892994 6.576520 9.897111 -70.385079 -0.000001 -0.000000 0.000002 -2.345539 4.688868 -62.655251 8.754145 9.897108 -87.051307 1.995324 4.929187 -37.483409 -0.000001 -0.000002 0.000008 7.542721 1.641886 -61.166366 8.248030 7.640378 -89.897871 2.146137 8.173468 -41.827716 -0.000000 0.000001 0.000001 2.718343 15.036118 15.504775 -22.207250 -2.854614 44.554038 -11.078336 39.602110 5.773671 4.440219 7.600163 -3.999652 -10.838149 0.665919 3.764130 4.125939 -29.040424 -9.920536 9.491171 -19.448574 -1.005571 0.000000 -0.000004 -0.000001 -0.505184 -2.858102 3.273969 0.033629 -0.082268 17.569859 0.381579 -1.972079 7.898649 0.000002 -0.000001 0.000001 -0.137577 -8.702209 11.570333 2.060948 -3.936951 33.648346 -0.243021 1.717980 7.911649 0.000001 0.000001 0.000001 0.852518 -12.936680 15.647393 2.040491 -3.647110 31.450579 1.854067 -3.784498 27.879032 -0.000002 -0.000000 -0.000003 -7.761973 -14.133030 9.208482 3.525495 -1.810387 25.215501 6.598214 -4.618331 34.043609 0.000005 -0.000002 -0.000001 -44.647663 3.609706 37.685825 47.854815 -10.405980 -1.782890 -10.831766 7.642022 -25.150630 -1.904464 -0.000226 -0.068083 -0.000000 0.000000 -0.000000 -42.153776 -3.225462 -34.885519 48.922207 7.649096 -1.948831 -16.088179 -2.947687 27.915352 -0.001200 -0.000376 -0.000542 -0.000000 0.000000 0.000000 
